<svg width="217" height="217" viewBox="0 0 217 217" fill="none" xmlns="http://www.w3.org/2000/svg">
<g clip-path="url(#clip0_326_1697)">
<rect width="217" height="217" rx="108.5" fill="url(#paint0_linear_326_1697)"/>
<path d="M80.1216 230.865L78.0114 229.366L57.3701 184.264L59.2741 181.813L80.1216 230.865Z" fill="#C49D32"/>
<path d="M102 205.352L119 204L116 236H104L102 205.352Z" fill="#005B23"/>
<path d="M140.819 191.753L123.739 192.273L132.107 232.522L144.003 230.943L140.819 191.753Z" fill="#005B23"/>
<path d="M101.374 118C101.374 128.217 103.589 144.5 111.873 144.5C120.157 144.5 120.5 103.717 120.5 93.5C120.5 83.2827 113.158 70 104.874 70C96.5898 70 101.374 107.783 101.374 118Z" fill="#E68938"/>
<rect x="155.754" y="84.6982" width="11.2177" height="34.3597" transform="rotate(56.8095 155.754 84.6982)" fill="#1D1D1D"/>
<path d="M108.499 107C108.499 117.217 106.284 133.5 98 133.5C89.7157 133.5 85.999 92.2173 85.999 82C85.999 71.7827 96.7147 59 104.999 59C113.283 59 108.499 96.7827 108.499 107Z" fill="#E68938"/>
<rect x="100.552" y="87.5225" width="1.92009" height="18" transform="rotate(-2.84499 100.552 87.5225)" fill="#D8B0B0"/>
<rect x="102.207" y="88.6875" width="13.8487" height="18" transform="rotate(-2.84499 102.207 88.6875)" fill="#FFBDBD"/>
<ellipse cx="109.194" cy="78.4419" rx="13.2693" ry="17.0048" transform="rotate(-6.05509 109.194 78.4419)" fill="#D8B0B0"/>
<ellipse cx="109.376" cy="75.8204" rx="13.5" ry="18.5" transform="rotate(-6.05509 109.376 75.8204)" fill="#FFBDBD"/>
<path d="M97.5 81C95.6342 77.8095 93.2054 63.6938 99.1036 60.2445C105.002 56.7952 111.296 56.5855 113.161 59.776C115.027 62.9664 114.986 69.7037 105.423 71.5014C96.423 72.0007 99.3658 84.1905 97.5 81Z" fill="#E68938"/>
<path d="M96.0638 72.2638C96.6025 72.1532 97.2902 73.2862 97.5998 74.7944C97.9094 76.3027 98.09 80.4056 97.5512 80.5162C97.0125 80.6268 95.9585 76.7031 95.6489 75.1949C95.3393 73.6867 95.5251 72.3744 96.0638 72.2638Z" fill="#E68938"/>
<ellipse cx="95.0757" cy="77.1403" rx="7.78693" ry="2.53189" transform="rotate(96.638 95.0757 77.1403)" fill="#E68938"/>
<path d="M96.897 78.1908C96.5473 80.0595 98.6839 81.1314 97.4783 81.9415C96.2728 82.7515 94.5578 82.3104 93.6477 80.9561C92.7377 79.6018 92.9773 77.8472 94.1829 77.0371C95.3884 76.2271 96.6028 76.4907 96.897 78.1908Z" fill="#FFBDBD"/>
<path d="M95.1335 78.2174C94.4443 78.7188 94.2855 80.6687 94.0867 80.5124C93.8879 80.3562 94.0075 78.3766 94.6174 77.6008C95.2272 76.8249 96.0361 77.78 96.2349 77.9363C96.4337 78.0926 95.8187 77.5441 95.1335 78.2174Z" fill="#D8B0B0"/>
<path d="M111.931 60.7047C112.946 59.211 116.625 59.9406 120.151 62.3345C123.676 64.7283 124.108 69.5055 123.094 70.9992C122.079 72.4929 120.003 70.1375 116.477 67.7437C112.952 65.3499 110.917 62.1984 111.931 60.7047Z" fill="#E68938"/>
<path d="M86.9141 104L96.6654 109.545L81 138.5L72.0076 130.213L86.9141 104Z" fill="#1D1D1D"/>
<ellipse cx="105.238" cy="62.7183" rx="28.3333" ry="6.55593" transform="rotate(-10.9373 105.238 62.7183)" fill="#1D1D1D"/>
<path d="M88.4996 56.9987L113.5 48.4997L119.161 57.548L89.1472 66.2951L88.4996 56.9987Z" fill="#1D1D1D"/>
<path d="M88.0002 51.5002L110.441 42.9993L113.5 48.4992L89 60.5L88.0002 51.5002Z" fill="#1D1D1D"/>
<path d="M86 48.5L103 37.0003L110.5 42.9998L90.8908 56.004L86 48.5Z" fill="#1D1D1D"/>
<path d="M84.5002 47.002L92.5 33.5L103 37.0019L87.4993 50.0006L84.5002 47.002Z" fill="#1D1D1D"/>
<path d="M81.5004 44.9999L87 33L92.5005 33.5L84.5003 46.9991L81.5004 44.9999Z" fill="#1D1D1D"/>
<rect x="82.0439" y="43.7998" width="10.2291" height="6.11605" transform="rotate(-95.8579 82.0439 43.7998)" fill="#1D1D1D"/>
<path d="M81.5003 44.9998L76.0008 37.2025L81.001 33.4989L86.1563 41.8772L81.5003 44.9998Z" fill="#1D1D1D"/>
<path d="M78.5 46L73.0016 41.5533L76.0016 37.0008L81.5003 44.9993L78.5 46Z" fill="#1D1D1D"/>
<path d="M76 47.5L72 45L72.9998 41.4996L78.4999 45.9998L76 47.5Z" fill="#1D1D1D"/>
<path d="M70.4998 51.0002L71.5 49.5L71.9966 48L71.9966 46.5L71.9966 45.0004L75.9981 47.5015L73 50L70.4998 51.0002Z" fill="#1D1D1D"/>
<path d="M175.5 50.3252L182.5 56L182 60L180.5 62L174.904 62.3736L173 61L172.5 58.5L175.5 50.3252Z" fill="#FFBDBD"/>
<path d="M153.144 86.9124L161.5 94L180.613 61.964L173.068 61.1244L153.144 86.9124Z" fill="#1D1D1D"/>
<path d="M131.052 25.7419L129.803 24.912L128.83 23.6656L129.94 23.8023L135.214 26.7056L143.544 32.2384L154.929 40.401L164.785 46.3473L178.806 55.06L181.998 56.58L183.664 57.6866L183.528 58.7962L182.974 59.6292L182.005 60.1856L180.478 59.7721L170.343 52.4396L146.186 36.3942L138.549 30.7215L131.052 25.7419Z" fill="#251300"/>
<path d="M175.501 50.2662L176.088 50.2666L177.588 50.7665L177.978 51.2228L176.589 54.2662L175.589 54.7662L174.589 54.2662L174.589 53.2662L175.501 50.2662Z" fill="#FFBDBD"/>
<path d="M173.741 50.9737L173.637 54.9724L176.058 58.0362L172.5 59L171.164 53.9077L171.794 48.9224L173.741 50.9737Z" fill="#FFBDBD"/>
<path d="M178.141 51.2448L178.72 51.3452L180.113 52.0935L180.419 52.6094L178.531 55.3716L177.461 55.6939L176.561 55.0308L176.731 54.0454L178.141 51.2448Z" fill="#FFBDBD"/>
<path d="M179.623 52.2217L180.181 52.4025L181.455 53.3392L181.685 53.8929L179.428 56.3624L178.323 56.5309L177.525 55.7478L177.832 54.7962L179.623 52.2217Z" fill="#FFBDBD"/>
<path d="M181.578 54.1484L181.975 54.3552L182.788 55.2295L182.867 55.6826L180.704 57.3037L179.827 57.2985L179.352 56.6001L179.754 55.9069L181.578 54.1484Z" fill="#FFBDBD"/>
<path d="M88 58.7895L94.9483 57.7368L102.966 56.6842L110.448 55.1053L116.328 53L119 56.6842L115.259 57.7368L111.517 59.3158L105.103 60.8947L100.828 61.4211L97.0862 61.9474L92.8103 62.4737L88 63V58.7895Z" fill="#9747FF"/>
<circle cx="114.5" cy="15.5" r="5" stroke="url(#paint1_angular_326_1697)"/>
<path d="M117.451 15.2151L116.513 14.1357L115.513 13.6357L114 13.5102L115.097 12.1698L116.013 12.6355L117.013 13.6357L117.451 15.2151Z" fill="url(#paint2_angular_326_1697)"/>
<circle cx="142" cy="17" r="3.5" stroke="url(#paint3_angular_326_1697)"/>
<path d="M144.146 16.7926L143.464 16.0076L142.737 15.644L141.636 15.5527L142.434 14.5779L143.1 14.9166L143.827 15.644L144.146 16.7926Z" fill="url(#paint4_angular_326_1697)"/>
<circle cx="128.5" cy="34.5" r="4" stroke="url(#paint5_angular_326_1697)"/>
<path d="M130.914 34.2665L130.147 33.3833L129.328 32.9743L128.091 32.8715L128.988 31.7749L129.738 32.1559L130.556 32.9743L130.914 34.2665Z" fill="url(#paint6_angular_326_1697)"/>
<circle cx="162.5" cy="27.5" r="6" stroke="url(#paint7_angular_326_1697)"/>
<path d="M165.987 27.1638L164.879 25.8881L163.697 25.2972L161.909 25.1488L163.206 23.5648L164.288 24.1152L165.47 25.2972L165.987 27.1638Z" fill="url(#paint8_angular_326_1697)"/>
<circle cx="96" cy="20" r="2.5" stroke="url(#paint9_angular_326_1697)"/>
<path d="M97.6093 19.845L97.0977 19.2562L96.5523 18.9835L95.7272 18.915L96.3256 18.1839L96.8251 18.4379L97.3705 18.9835L97.6093 19.845Z" fill="url(#paint10_angular_326_1697)"/>
<circle cx="182" cy="41" r="2.5" stroke="url(#paint11_angular_326_1697)"/>
<path d="M183.609 40.845L183.098 40.2562L182.552 39.9835L181.727 39.915L182.326 39.1839L182.825 39.4379L183.37 39.9835L183.609 40.845Z" fill="url(#paint12_angular_326_1697)"/>
<circle cx="75.5" cy="25.5" r="4" stroke="url(#paint13_angular_326_1697)"/>
<path d="M77.914 25.2665L77.1466 24.3833L76.3284 23.9743L75.0909 23.8715L75.9884 22.7749L76.7377 23.1559L77.5557 23.9743L77.914 25.2665Z" fill="url(#paint14_angular_326_1697)"/>
<circle cx="84" cy="15" r="3.5" stroke="url(#paint15_angular_326_1697)"/>
<path d="M86.1459 14.7926L85.4638 14.0076L84.7365 13.644L83.6365 13.5527L84.4343 12.5779L85.1003 12.9166L85.8275 13.644L86.1459 14.7926Z" fill="url(#paint16_angular_326_1697)"/>
<circle cx="137" cy="14" r="2.5" stroke="url(#paint17_angular_326_1697)"/>
<path d="M138.609 13.845L138.098 13.2562L137.552 12.9835L136.727 12.915L137.326 12.1839L137.825 12.4379L138.37 12.9835L138.609 13.845Z" fill="url(#paint18_angular_326_1697)"/>
<path d="M44.4619 114.754L44.7098 123.762L48.1892 125.797L50.6891 125.823L54.3886 121.608L54.4563 119.261L52.7758 117.344L44.4619 114.754Z" fill="#FFBDBD"/>
<path d="M83.9023 126.759L81 138.5L49.5 125.5L54.5141 120L83.9023 126.759Z" fill="#1D1D1D"/>
<path d="M63.8398 199.446L64.4962 202.881L64.0109 206.535L62.4316 204.463L58.6643 190.938L54.2883 168.033L49.3035 135.749L43.1294 109.626L34.7672 72.0518L32.0939 64.2533L31.2187 59.6723L33.2833 58.0909L35.5667 57.6546L38.0689 58.3636L39.867 61.5812L44.1954 90.4302L56.8859 156.854L59.9014 178.831L63.8398 199.446Z" fill="#251300"/>
<path d="M44.414 114.719L44.0572 115.185L43.5418 116.68L43.6674 117.267L46.928 118.015L47.9331 117.525L48.1443 116.427L47.3505 115.819L44.414 114.719Z" fill="#FFBDBD"/>
<path d="M43.5853 117.41L43.3132 117.931L43.0601 119.491L43.2837 120.048L46.6242 120.229L47.5311 119.576L47.5521 118.458L46.6663 117.994L43.5853 117.41Z" fill="#FFBDBD"/>
<path d="M43.4601 119.18L43.2639 119.733L43.2327 121.314L43.5323 121.833L46.8652 121.544L47.6711 120.769L47.5348 119.659L46.5925 119.324L43.4601 119.18Z" fill="#FFBDBD"/>
<path d="M43.8004 121.904L43.7233 122.345L43.9231 123.522L44.2345 123.86L46.837 123.129L47.3663 122.429L47.1005 121.628L46.3056 121.526L43.8004 121.904Z" fill="#FFBDBD"/>
<path d="M46.0463 113.752L49.2838 116.101L50.2433 119.887L53.1724 117.648L49.9425 113.491L45.602 110.959L46.0463 113.752Z" fill="#FFBDBD"/>
<path d="M55.0342 166.785L55.9308 167.395L58.5775 180.678L57.0031 181.041L55.0342 166.785Z" fill="#EAC256"/>
<path d="M59.1064 164.145L58.0506 165.104L56.2383 180.908L58.2554 180.844L59.1064 164.145Z" fill="#C49D32"/>
<path d="M52.3174 168.824L53.5054 169.111L58.3543 180.526L56.4359 181.342L52.3174 168.824Z" fill="#C49D32"/>
<path d="M56.0479 162.364L56.9756 163.2L60.1514 180.313L58.577 180.676L56.0479 162.364Z" fill="#C49D32"/>
<path d="M61.0215 165.4L61.852 166.332L60.1439 180.164L58.1656 179.914L61.0215 165.4Z" fill="#E6C25F"/>
<path d="M62.8892 170.027L61.7635 170.393L58.1582 179.861L60.0996 180.269L62.8892 170.027Z" fill="#C49D32"/>
<path d="M52.6602 171.535L52.1497 172.647L56.7534 180.92L58.4136 179.591L52.6602 171.535Z" fill="#C49D32"/>
<path d="M52 176.112L52.5525 175.76L57.57 179.759L57.0231 181.008L52 176.112Z" fill="#E3BB4C"/>
<path d="M63.7822 171.881L63.8965 172.829L59.7597 181.19L58.9998 180.221L63.7822 171.881Z" fill="#C49D32"/>
<path d="M65.1533 219.363L63.6255 217.983L57.7769 179.974L60.2924 178.155L65.1533 219.363Z" fill="#C49D32"/>
<path d="M58.8462 229.095L60.4497 225.759L61.5518 178.192L58.2821 179.334L58.8462 229.095Z" fill="#C49D32"/>
<path d="M69.3306 212.057L67.367 211.769L58.1583 180.32L61.1799 177L69.3306 212.057Z" fill="#C49D32"/>
<path d="M64.0229 232.91L62.4183 230.879L55.2636 181.797L57.7791 179.978L64.0229 232.91Z" fill="#C49D32"/>
<path d="M55.5879 226.283L54.13 223.923L55.2926 182.231L58.5358 182.036L55.5879 226.283Z" fill="#C49D32"/>
<path d="M52.0146 213.49L53.8009 211.879L58.5545 182.19L55.3529 181.902L52.0146 213.49Z" fill="#C49D32"/>
<path d="M68.4575 204.205L69.1572 200.678L60.7131 178.398L58.1708 183.109L68.4575 204.205Z" fill="#C49D32"/>
<path d="M68.9966 190.363L68.14 191.666L59.5219 182.214L60.2649 178.264L68.9966 190.363Z" fill="#C49D32"/>
<path d="M50.3477 208.437L50.0515 205.688L55.7978 179.021L57.1454 181.529L50.3477 208.437Z" fill="#C49D32"/>
<path d="M47.8164 201.999L47.4983 200.376L56.6238 177L58.4404 177.528L47.8164 201.999Z" fill="#C49D32"/>
<path d="M78.7388 209.33L76.7012 208.295L58.0002 178.521L59.9925 177L78.7388 209.33Z" fill="#C49D32"/>
<path d="M69.1724 219.057L67.2088 218.769L58.0001 187.32L61.0217 184L69.1724 219.057Z" fill="#C49D32"/>
<path d="M75.687 211.51L73.7073 211.648L58.0002 182.888L60.2438 179L75.687 211.51Z" fill="#C49D32"/>
<path d="M75.562 196.109L74.3595 196.372L58.9999 180.537L59.6352 178L75.562 196.109Z" fill="#C49D32"/>
<path d="M52.4243 220.84L51.4269 219.039L58.2262 181.188L61.1957 180.283L52.4243 220.84Z" fill="#C49D32"/>
<path d="M43.3013 227.999L45.9003 225.364L62.3752 180.727L58.9117 180.747L43.3013 227.999Z" fill="#C49D32"/>
<path d="M58.7461 215.284L56.982 214.375L58.4744 181.64L62.4098 179.48L58.7461 215.284Z" fill="#C49D32"/>
<path d="M46.96 233.287L46.1012 230.845L55.2572 182.097L58.2267 181.193L46.96 233.287Z" fill="#C49D32"/>
<path d="M41.1313 224.282L40.5181 221.577L55.144 182.517L58.2753 183.384L41.1313 224.282Z" fill="#C49D32"/>
<path d="M41.9019 211.022L44.1516 209.998L58.9176 182.088L55.9825 180.777L41.9019 211.022Z" fill="#DBB756"/>
<path d="M60.4678 207.574L62.274 204.465L61.5149 180.651L57.5817 184.282L60.4678 207.574Z" fill="#C49D32"/>
<path d="M41.9648 205.701L42.5765 203.005L56.6636 179.645L57.1246 182.454L41.9648 205.701Z" fill="#C49D32"/>
<path d="M41.6587 198.79L41.8845 197.151L58.1003 178L59.6474 179.089L41.6587 198.79Z" fill="#C49D32"/>
<path d="M68.5303 215.757L66.9388 214.116L58.9089 179.886L61.2871 179.093L68.5303 215.757Z" fill="#C49D32"/>
<path d="M56.3257 221.854L54.5616 220.945L56.054 188.209L59.9894 186.049L56.3257 221.854Z" fill="#C49D32"/>
<path d="M64.9365 216.829L63.0191 216.317L57.4922 184.018L60.8759 181.067L64.9365 216.829Z" fill="#C49D32"/>
<path d="M77.4048 217.545L75.5511 216.649L59.2707 181.808L61.1747 179.357L77.4048 217.545Z" fill="#C49D32"/>
<path d="M74.082 228.655L74.685 225.004L62.3938 179.038L59.576 181.052L74.082 228.655Z" fill="#C49D32"/>
<path d="M79.3638 209.36L77.3984 209.635L59.7342 182.035L61.7026 178L79.3638 209.36Z" fill="#C49D32"/>
<path d="M70.166 226.871L68.1043 225.015L57.52 184.672L60.5781 183.574L70.166 226.871Z" fill="#C49D32"/>
<path d="M63.146 215.596L64.3694 213.333L59.9375 179.844L56.7838 180.466L63.146 215.596Z" fill="#F8CF5F"/>
<path d="M76.3228 202.069L76.0044 198.487L61.6473 179.473L60.5292 184.708L76.3228 202.069Z" fill="#C49D32"/>
<path d="M60.1279 211.213L59.0723 208.658L57.104 181.45L59.1013 183.479L60.1279 211.213Z" fill="#C49D32"/>
<path d="M55.8916 205.745L55.1268 204.307L57.2599 179.832L59.1517 179.829L55.8916 205.745Z" fill="#DAB54F"/>
<path d="M87.6289 204.103L85.4244 203.72L59.8296 181.068L61.3148 179.048L87.6289 204.103Z" fill="#E4C46B"/>
<path d="M81.1763 216.123L79.6087 214.846L59.2632 180.227L60.051 178.612L81.1763 216.123Z" fill="#E8C25C"/>
<path d="M85.3115 207.051L83.6211 206.768L60 181L60.4415 179.144L85.3115 207.051Z" fill="#C49D32"/>
<path d="M86.9771 104.538L94.0305 100.087L106.855 101.358L119.038 100.087L129.939 96.9075L141.481 95L135.069 107.717L129.939 136.965L133.786 149.682L144.046 167.486L162 191.647L152.5 196.5L144.046 199.5L133.786 202L120.5 204L104 206H89.5L78 205L90.1832 172.572L95.313 158.584L99.8015 146.503L94.0305 113.439L86.9771 104.538Z" fill="#1D1D1D"/>
<path d="M54.9998 180.5L56.5 180.5L59 180L61 179.5L62.0001 179" stroke="#251300" stroke-linecap="round"/>
</g>
<defs>
<linearGradient id="paint0_linear_326_1697" x1="153.5" y1="10" x2="65.5" y2="207.5" gradientUnits="userSpaceOnUse">
<stop stop-color="#65362A"/>
<stop offset="0.46" stop-color="#FFE993"/>
<stop offset="1" stop-color="#74CD7F"/>
</linearGradient>
<radialGradient id="paint1_angular_326_1697" cx="0" cy="0" r="1" gradientUnits="userSpaceOnUse" gradientTransform="translate(114.5 15.5) rotate(127.875) scale(5.70088)">
<stop stop-color="#38FFB0"/>
<stop offset="0.32" stop-color="#FFA7C7"/>
<stop offset="0.6" stop-color="#BB55FF"/>
<stop offset="0.9" stop-color="#FFC472"/>
</radialGradient>
<radialGradient id="paint2_angular_326_1697" cx="0" cy="0" r="1" gradientUnits="userSpaceOnUse" gradientTransform="translate(116.069 13.9426) rotate(135.597) scale(0.796641 1.5307)">
<stop offset="0.33" stop-color="#4DF5B2"/>
<stop offset="0.5" stop-color="#FDA5C8"/>
<stop offset="0.67" stop-color="#D675E8"/>
<stop offset="0.92" stop-color="#FAC573"/>
</radialGradient>
<radialGradient id="paint3_angular_326_1697" cx="0" cy="0" r="1" gradientUnits="userSpaceOnUse" gradientTransform="translate(142 17) rotate(127.875) scale(4.14609)">
<stop stop-color="#38FFB0"/>
<stop offset="0.32" stop-color="#FFA7C7"/>
<stop offset="0.6" stop-color="#BB55FF"/>
<stop offset="0.9" stop-color="#FFC472"/>
</radialGradient>
<radialGradient id="paint4_angular_326_1697" cx="0" cy="0" r="1" gradientUnits="userSpaceOnUse" gradientTransform="translate(143.141 15.8672) rotate(135.597) scale(0.579375 1.11324)">
<stop offset="0.33" stop-color="#4DF5B2"/>
<stop offset="0.5" stop-color="#FDA5C8"/>
<stop offset="0.67" stop-color="#D675E8"/>
<stop offset="0.92" stop-color="#FAC573"/>
</radialGradient>
<radialGradient id="paint5_angular_326_1697" cx="0" cy="0" r="1" gradientUnits="userSpaceOnUse" gradientTransform="translate(128.5 34.5) rotate(127.875) scale(4.66435)">
<stop stop-color="#38FFB0"/>
<stop offset="0.32" stop-color="#FFA7C7"/>
<stop offset="0.6" stop-color="#BB55FF"/>
<stop offset="0.9" stop-color="#FFC472"/>
</radialGradient>
<radialGradient id="paint6_angular_326_1697" cx="0" cy="0" r="1" gradientUnits="userSpaceOnUse" gradientTransform="translate(129.784 33.2253) rotate(135.597) scale(0.651797 1.25239)">
<stop offset="0.33" stop-color="#4DF5B2"/>
<stop offset="0.5" stop-color="#FDA5C8"/>
<stop offset="0.67" stop-color="#D675E8"/>
<stop offset="0.92" stop-color="#FAC573"/>
</radialGradient>
<radialGradient id="paint7_angular_326_1697" cx="0" cy="0" r="1" gradientUnits="userSpaceOnUse" gradientTransform="translate(162.5 27.5) rotate(127.875) scale(6.7374)">
<stop stop-color="#38FFB0"/>
<stop offset="0.32" stop-color="#FFA7C7"/>
<stop offset="0.6" stop-color="#BB55FF"/>
<stop offset="0.9" stop-color="#FFC472"/>
</radialGradient>
<radialGradient id="paint8_angular_326_1697" cx="0" cy="0" r="1" gradientUnits="userSpaceOnUse" gradientTransform="translate(164.355 25.6599) rotate(135.597) scale(0.941484 1.80901)">
<stop offset="0.33" stop-color="#4DF5B2"/>
<stop offset="0.5" stop-color="#FDA5C8"/>
<stop offset="0.67" stop-color="#D675E8"/>
<stop offset="0.92" stop-color="#FAC573"/>
</radialGradient>
<radialGradient id="paint9_angular_326_1697" cx="0" cy="0" r="1" gradientUnits="userSpaceOnUse" gradientTransform="translate(96 20) rotate(127.875) scale(3.10957)">
<stop stop-color="#38FFB0"/>
<stop offset="0.32" stop-color="#FFA7C7"/>
<stop offset="0.6" stop-color="#BB55FF"/>
<stop offset="0.9" stop-color="#FFC472"/>
</radialGradient>
<radialGradient id="paint10_angular_326_1697" cx="0" cy="0" r="1" gradientUnits="userSpaceOnUse" gradientTransform="translate(96.8558 19.1509) rotate(135.597) scale(0.434531 0.834927)">
<stop offset="0.33" stop-color="#4DF5B2"/>
<stop offset="0.5" stop-color="#FDA5C8"/>
<stop offset="0.67" stop-color="#D675E8"/>
<stop offset="0.92" stop-color="#FAC573"/>
</radialGradient>
<radialGradient id="paint11_angular_326_1697" cx="0" cy="0" r="1" gradientUnits="userSpaceOnUse" gradientTransform="translate(182 41) rotate(127.875) scale(3.10957)">
<stop stop-color="#38FFB0"/>
<stop offset="0.32" stop-color="#FFA7C7"/>
<stop offset="0.6" stop-color="#BB55FF"/>
<stop offset="0.9" stop-color="#FFC472"/>
</radialGradient>
<radialGradient id="paint12_angular_326_1697" cx="0" cy="0" r="1" gradientUnits="userSpaceOnUse" gradientTransform="translate(182.856 40.1509) rotate(135.597) scale(0.434531 0.834927)">
<stop offset="0.33" stop-color="#4DF5B2"/>
<stop offset="0.5" stop-color="#FDA5C8"/>
<stop offset="0.67" stop-color="#D675E8"/>
<stop offset="0.92" stop-color="#FAC573"/>
</radialGradient>
<radialGradient id="paint13_angular_326_1697" cx="0" cy="0" r="1" gradientUnits="userSpaceOnUse" gradientTransform="translate(75.5 25.5) rotate(127.875) scale(4.66435)">
<stop stop-color="#38FFB0"/>
<stop offset="0.32" stop-color="#FFA7C7"/>
<stop offset="0.6" stop-color="#BB55FF"/>
<stop offset="0.9" stop-color="#FFC472"/>
</radialGradient>
<radialGradient id="paint14_angular_326_1697" cx="0" cy="0" r="1" gradientUnits="userSpaceOnUse" gradientTransform="translate(76.7837 24.2253) rotate(135.597) scale(0.651797 1.25239)">
<stop offset="0.33" stop-color="#4DF5B2"/>
<stop offset="0.5" stop-color="#FDA5C8"/>
<stop offset="0.67" stop-color="#D675E8"/>
<stop offset="0.92" stop-color="#FAC573"/>
</radialGradient>
<radialGradient id="paint15_angular_326_1697" cx="0" cy="0" r="1" gradientUnits="userSpaceOnUse" gradientTransform="translate(84 15) rotate(127.875) scale(4.14609)">
<stop stop-color="#38FFB0"/>
<stop offset="0.32" stop-color="#FFA7C7"/>
<stop offset="0.6" stop-color="#BB55FF"/>
<stop offset="0.9" stop-color="#FFC472"/>
</radialGradient>
<radialGradient id="paint16_angular_326_1697" cx="0" cy="0" r="1" gradientUnits="userSpaceOnUse" gradientTransform="translate(85.1412 13.8672) rotate(135.597) scale(0.579375 1.11324)">
<stop offset="0.33" stop-color="#4DF5B2"/>
<stop offset="0.5" stop-color="#FDA5C8"/>
<stop offset="0.67" stop-color="#D675E8"/>
<stop offset="0.92" stop-color="#FAC573"/>
</radialGradient>
<radialGradient id="paint17_angular_326_1697" cx="0" cy="0" r="1" gradientUnits="userSpaceOnUse" gradientTransform="translate(137 14) rotate(127.875) scale(3.10957)">
<stop stop-color="#38FFB0"/>
<stop offset="0.32" stop-color="#FFA7C7"/>
<stop offset="0.6" stop-color="#BB55FF"/>
<stop offset="0.9" stop-color="#FFC472"/>
</radialGradient>
<radialGradient id="paint18_angular_326_1697" cx="0" cy="0" r="1" gradientUnits="userSpaceOnUse" gradientTransform="translate(137.856 13.1509) rotate(135.597) scale(0.434531 0.834927)">
<stop offset="0.33" stop-color="#4DF5B2"/>
<stop offset="0.5" stop-color="#FDA5C8"/>
<stop offset="0.67" stop-color="#D675E8"/>
<stop offset="0.92" stop-color="#FAC573"/>
</radialGradient>
<clipPath id="clip0_326_1697">
<rect width="217" height="217" rx="108.5" fill="white"/>
</clipPath>
</defs>
</svg>
