<svg width="498" height="341" viewBox="0 0 498 341" fill="none" xmlns="http://www.w3.org/2000/svg">
<line x1="257.5" y1="-3.71547e-07" x2="257.5" y2="109" stroke="#FF412C" stroke-width="17"/>
<path d="M47.6506 152.636V189H41.0632V152.636H47.6506ZM84.6667 152.636V189H78.8074L61.6731 164.231H61.3713V189H54.7839V152.636H60.6788L77.7953 177.423H78.1149V152.636H84.6667ZM96.7095 152.636L106.173 181.259H106.546L115.992 152.636H123.237L110.417 189H102.285L89.483 152.636H96.7095ZM134.613 152.636V189H128.026V152.636H134.613ZM161.509 162.633C161.343 161.082 160.645 159.875 159.414 159.011C158.194 158.147 156.608 157.714 154.655 157.714C153.282 157.714 152.104 157.922 151.122 158.336C150.139 158.75 149.388 159.312 148.867 160.023C148.346 160.733 148.08 161.544 148.068 162.455C148.068 163.213 148.239 163.87 148.583 164.426C148.938 164.982 149.417 165.456 150.021 165.847C150.625 166.225 151.293 166.545 152.027 166.805C152.761 167.066 153.501 167.285 154.247 167.462L157.656 168.315C159.029 168.634 160.349 169.066 161.615 169.611C162.894 170.155 164.036 170.842 165.042 171.67C166.06 172.499 166.865 173.499 167.457 174.671C168.049 175.843 168.345 177.216 168.345 178.79C168.345 180.921 167.8 182.797 166.711 184.419C165.622 186.029 164.048 187.29 161.988 188.201C159.94 189.101 157.461 189.55 154.549 189.55C151.72 189.55 149.263 189.112 147.18 188.237C145.109 187.361 143.487 186.082 142.315 184.401C141.155 182.72 140.528 180.673 140.433 178.258H146.914C147.008 179.524 147.399 180.578 148.086 181.418C148.772 182.259 149.666 182.886 150.767 183.3C151.879 183.715 153.122 183.922 154.495 183.922C155.928 183.922 157.182 183.709 158.26 183.283C159.349 182.845 160.201 182.241 160.816 181.472C161.432 180.69 161.746 179.779 161.757 178.737C161.746 177.79 161.467 177.009 160.923 176.393C160.378 175.766 159.615 175.245 158.632 174.831C157.662 174.405 156.525 174.026 155.223 173.695L151.086 172.629C148.092 171.86 145.724 170.694 143.984 169.131C142.256 167.557 141.392 165.468 141.392 162.864C141.392 160.721 141.972 158.845 143.132 157.235C144.304 155.625 145.896 154.376 147.908 153.489C149.92 152.589 152.199 152.139 154.744 152.139C157.324 152.139 159.585 152.589 161.527 153.489C163.48 154.376 165.013 155.613 166.125 157.2C167.238 158.774 167.812 160.585 167.848 162.633H161.509ZM180.805 152.636V189H174.218V152.636H180.805ZM187.938 189V152.636H201.859C204.487 152.636 206.67 153.051 208.411 153.879C210.162 154.696 211.47 155.815 212.335 157.235C213.21 158.656 213.648 160.265 213.648 162.065C213.648 163.544 213.364 164.811 212.796 165.864C212.228 166.906 211.464 167.752 210.506 168.403C209.547 169.054 208.476 169.522 207.292 169.806V170.161C208.582 170.232 209.819 170.629 211.003 171.351C212.198 172.061 213.175 173.067 213.933 174.369C214.69 175.671 215.069 177.246 215.069 179.092C215.069 180.974 214.613 182.667 213.702 184.17C212.79 185.662 211.417 186.84 209.582 187.704C207.748 188.568 205.439 189 202.658 189H187.938ZM194.526 183.496H201.61C204.001 183.496 205.723 183.04 206.777 182.129C207.842 181.205 208.375 180.022 208.375 178.577C208.375 177.5 208.109 176.53 207.576 175.665C207.043 174.79 206.286 174.103 205.303 173.606C204.321 173.097 203.149 172.842 201.788 172.842H194.526V183.496ZM194.526 168.102H201.042C202.178 168.102 203.202 167.894 204.114 167.48C205.025 167.054 205.741 166.456 206.262 165.687C206.795 164.906 207.061 163.982 207.061 162.917C207.061 161.508 206.564 160.348 205.57 159.437C204.587 158.525 203.125 158.07 201.184 158.07H194.526V168.102ZM220.8 189V152.636H227.387V183.478H243.403V189H220.8ZM249.12 189V152.636H272.77V158.158H255.707V168.031H271.545V173.553H255.707V183.478H272.912V189H249.12ZM299.546 189L289.283 152.636H296.368L302.92 179.359H303.257L310.253 152.636H316.698L323.711 179.376H324.031L330.583 152.636H337.667L327.405 189H320.906L313.626 163.485H313.342L306.045 189H299.546ZM343.487 189H336.456L349.257 152.636H357.39L370.209 189H363.178L353.466 160.094H353.181L343.487 189ZM343.718 174.742H362.894V180.033H343.718V174.742ZM374.999 189V152.636H381.586V183.478H397.602V189H374.999ZM403.319 189V152.636H409.906V183.478H425.922V189H403.319ZM451.401 162.633C451.236 161.082 450.537 159.875 449.306 159.011C448.087 158.147 446.501 157.714 444.548 157.714C443.175 157.714 441.997 157.922 441.014 158.336C440.032 158.75 439.28 159.312 438.759 160.023C438.239 160.733 437.972 161.544 437.96 162.455C437.96 163.213 438.132 163.87 438.475 164.426C438.83 164.982 439.31 165.456 439.914 165.847C440.517 166.225 441.186 166.545 441.92 166.805C442.654 167.066 443.394 167.285 444.139 167.462L447.548 168.315C448.922 168.634 450.241 169.066 451.508 169.611C452.786 170.155 453.929 170.842 454.935 171.67C455.953 172.499 456.758 173.499 457.35 174.671C457.941 175.843 458.237 177.216 458.237 178.79C458.237 180.921 457.693 182.797 456.604 184.419C455.515 186.029 453.941 187.29 451.881 188.201C449.833 189.101 447.353 189.55 444.441 189.55C441.612 189.55 439.156 189.112 437.073 188.237C435.001 187.361 433.379 186.082 432.208 184.401C431.048 182.72 430.42 180.673 430.325 178.258H436.806C436.901 179.524 437.292 180.578 437.978 181.418C438.665 182.259 439.558 182.886 440.659 183.3C441.772 183.715 443.015 183.922 444.388 183.922C445.82 183.922 447.075 183.709 448.152 183.283C449.241 182.845 450.093 182.241 450.709 181.472C451.325 180.69 451.638 179.779 451.65 178.737C451.638 177.79 451.36 177.009 450.816 176.393C450.271 175.766 449.508 175.245 448.525 174.831C447.554 174.405 446.418 174.026 445.116 173.695L440.979 172.629C437.984 171.86 435.617 170.694 433.877 169.131C432.148 167.557 431.284 165.468 431.284 162.864C431.284 160.721 431.864 158.845 433.024 157.235C434.196 155.625 435.788 154.376 437.801 153.489C439.813 152.589 442.092 152.139 444.637 152.139C447.217 152.139 449.478 152.589 451.419 153.489C453.372 154.376 454.905 155.613 456.018 157.2C457.131 158.774 457.705 160.585 457.74 162.633H451.401Z" fill="#232323"/>
<line x1="257.5" y1="232" x2="257.5" y2="341" stroke="#FF412C" stroke-width="17"/>
</svg>
