<svg width="129" height="40" viewBox="0 0 129 40" fill="none" xmlns="http://www.w3.org/2000/svg">
<g clip-path="url(#clip0_298_1519)">
<path fill-rule="evenodd" clip-rule="evenodd" d="M66.94 0.29L71.16 0.304C71.3166 0.304108 71.469 0.355063 71.5941 0.4492C71.7193 0.543337 71.8105 0.675567 71.854 0.826L76.654 17.598C76.6845 17.7054 76.6897 17.8184 76.6691 17.9281C76.6485 18.0378 76.6027 18.1412 76.5353 18.2302C76.4679 18.3192 76.3808 18.3913 76.2808 18.4409C76.1808 18.4905 76.0706 18.5162 75.959 18.516H72.67C72.5058 18.5162 72.3464 18.4604 72.218 18.3579C72.0897 18.2554 72.0001 18.1122 71.964 17.952L69.066 4.87L67.138 14.135C67.1038 14.2974 67.0148 14.4431 66.8858 14.5476C66.7569 14.6521 66.596 14.7091 66.43 14.709H63.384C63.273 14.7093 63.1634 14.6841 63.0638 14.6351C62.9642 14.5862 62.8773 14.5149 62.8097 14.4268C62.7422 14.3387 62.6958 14.2363 62.6744 14.1274C62.6529 14.0185 62.6569 13.9061 62.686 13.799L66.24 0.82C66.2822 0.667002 66.3736 0.532173 66.5002 0.436368C66.6267 0.340564 66.7813 0.289122 66.94 0.29ZM84.635 18.83C88.143 18.83 89.713 16.61 90.61 14.533C90.6474 14.4458 90.6672 14.352 90.6682 14.2571C90.6692 14.1622 90.6514 14.0681 90.6159 13.9801C90.5804 13.8921 90.5279 13.8119 90.4613 13.7443C90.3947 13.6767 90.3154 13.6229 90.228 13.586L87.915 12.606C87.7404 12.5319 87.5437 12.5292 87.3672 12.5986C87.1906 12.6679 87.0484 12.8038 86.971 12.977C86.469 14.115 85.564 14.927 84.388 14.927C82.142 14.927 80.854 12.608 80.854 9.415C80.854 6.222 82.142 3.902 84.388 3.902C85.543 3.902 86.426 4.62 86.954 5.697C87.123 6.042 87.534 6.193 87.887 6.042L90.189 5.058C90.2779 5.02049 90.3582 4.96548 90.4254 4.89626C90.4925 4.82704 90.5451 4.74502 90.5799 4.65508C90.6147 4.56514 90.631 4.46911 90.628 4.37272C90.6249 4.27633 90.6025 4.18154 90.562 4.094C89.607 2.054 87.862 0 84.388 0C79.43 0 76.334 3.847 76.334 9.415C76.334 14.955 79.678 18.83 84.635 18.83ZM11.998 17.782V15.375C11.9979 15.2802 11.9791 15.1864 11.9426 15.0989C11.9062 15.0114 11.8529 14.932 11.7858 14.8651C11.7186 14.7982 11.6389 14.7453 11.5513 14.7092C11.4637 14.6732 11.3698 14.6547 11.275 14.655H5.42301V11.188H11.083C11.483 11.188 11.806 10.866 11.806 10.468V8.061C11.8055 7.86969 11.729 7.68641 11.5935 7.55141C11.4579 7.41641 11.2743 7.34073 11.083 7.341H5.42301V4.147H11.275C11.675 4.147 11.998 3.824 11.998 3.427V1.02C11.998 0.925101 11.9793 0.831134 11.943 0.743471C11.9066 0.655809 11.8533 0.576172 11.7862 0.509115C11.719 0.442058 11.6393 0.388897 11.5516 0.352672C11.4639 0.316447 11.3699 0.297869 11.275 0.298H1.70801C1.30801 0.298 0.984009 0.621 0.984009 1.02V17.78C0.984009 18.178 1.30901 18.5 1.70801 18.5H11.275C11.675 18.5 11.998 18.178 11.998 17.78M31.809 17.782V1.26C31.809 0.73 31.377 0.3 30.845 0.3H26.663C26.4624 0.299957 26.2668 0.362441 26.1033 0.478758C25.9398 0.595076 25.8167 0.759444 25.751 0.949L22.851 9.387L19.977 0.952C19.9122 0.761372 19.7893 0.595854 19.6255 0.478722C19.4617 0.36159 19.2654 0.298737 19.064 0.299H14.588C14.189 0.299 13.866 0.622 13.866 1.021V17.781C13.866 18.179 14.189 18.501 14.588 18.501H17.58C17.98 18.501 18.303 18.179 18.303 17.781V7.696L20.598 14.074C20.735 14.455 21.098 14.71 21.506 14.71H24.348C24.652 14.71 24.925 14.52 25.028 14.234L27.398 7.696V17.783C27.398 18.18 27.722 18.503 28.122 18.503H31.086C31.486 18.503 31.809 18.18 31.809 17.783M44.29 9.115C46.016 8.705 47.303 7.204 47.303 4.94C47.303 2.592 45.769 0.3 42.317 0.3H34.713C34.313 0.3 33.989 0.622 33.989 1.02V17.782C33.989 18.179 34.313 18.502 34.713 18.502H42.591C46.043 18.502 47.605 16.237 47.605 13.562C47.605 11.298 46.18 9.414 44.29 9.115ZM38.427 4.093H41.222C42.257 4.093 42.806 4.776 42.782 5.794C42.7705 6.21614 42.5945 6.61707 42.2914 6.91116C41.9883 7.20525 41.5823 7.3692 41.16 7.368H38.427V4.093ZM41.358 14.709H38.428V11.162H41.358C42.455 11.162 43.085 11.898 43.085 12.935C43.085 14.081 42.455 14.709 41.358 14.709ZM55.885 8.405H53.557V4.148H55.885C57.063 4.148 57.912 4.94 57.912 6.276C57.912 7.614 57.063 8.405 55.885 8.405ZM62.098 17.492L59.447 11.462C60.817 10.861 62.406 9.306 62.406 6.222C62.406 2.865 60.132 0.3 56.57 0.3H49.84C49.441 0.3 49.118 0.622 49.118 1.02V17.782C49.118 18.179 49.441 18.502 49.841 18.502H52.832C53.232 18.502 53.556 18.179 53.556 17.782V12.253H55.2L57.433 18.04C57.541 18.319 57.809 18.502 58.108 18.502H61.436C61.556 18.5025 61.6742 18.473 61.7799 18.4162C61.8856 18.3594 61.9754 18.2771 62.0412 18.1767C62.1069 18.0763 62.1466 17.9611 62.1565 17.8416C62.1665 17.722 62.1463 17.6018 62.098 17.492ZM12.974 40C15.674 40 17.71 38.946 19.314 37.256C19.4823 37.0779 19.5758 36.842 19.575 36.597V30.077C19.5745 29.8857 19.498 29.7024 19.3625 29.5674C19.2269 29.4324 19.0433 29.3567 18.852 29.357H13.15C12.75 29.357 12.427 29.679 12.427 30.077V32.512C12.427 32.909 12.75 33.232 13.15 33.232H15.412V35.225C14.92 35.715 13.988 36.098 12.975 36.098C10.92 36.098 9.44001 34.214 9.44001 30.585C9.44001 26.955 10.92 25.072 12.975 25.072C14.132 25.072 14.97 25.802 15.473 26.736C15.5605 26.8945 15.7045 27.0142 15.8763 27.0712C16.0481 27.1283 16.2351 27.1186 16.4 27.044L18.706 26.017C18.7943 25.9777 18.8738 25.9211 18.9398 25.8505C19.0058 25.7799 19.057 25.6967 19.0902 25.6059C19.1234 25.5152 19.138 25.4186 19.1332 25.3221C19.1283 25.2256 19.1041 25.131 19.062 25.044C18.028 22.914 16.073 21.17 12.975 21.17C8.12601 21.17 4.92101 24.882 4.92101 30.585C4.92001 36.26 8.12501 40 12.974 40ZM43.316 21.17C38.385 21.17 35.344 25.099 35.344 30.585C35.344 36.07 38.384 40 43.316 40C48.247 40 51.288 36.07 51.288 30.585C51.288 25.099 48.248 21.17 43.316 21.17ZM43.316 36.098C41.098 36.098 39.865 33.724 39.865 30.585C39.865 27.42 41.098 25.072 43.316 25.072C45.563 25.072 46.796 27.42 46.796 30.585C46.796 33.724 45.563 36.098 43.316 36.098ZM59.701 40C64.057 40 66.851 37.517 66.851 33.205V22.19C66.8509 22.0952 66.8321 22.0013 66.7957 21.9138C66.7593 21.8262 66.706 21.7467 66.6388 21.6798C66.5717 21.6128 66.492 21.5597 66.4044 21.5236C66.3167 21.4874 66.2228 21.4689 66.128 21.469H63.108C62.9167 21.469 62.7332 21.5449 62.5978 21.6801C62.4625 21.8153 62.3863 21.9987 62.386 22.19V33.23C62.386 35.06 61.427 36.124 59.701 36.124C57.948 36.124 56.989 35.059 56.989 33.231V22.191C56.9891 22.0961 56.9705 22.002 56.9342 21.9143C56.8979 21.8266 56.8447 21.7469 56.7775 21.6798C56.7103 21.6127 56.6305 21.5596 56.5428 21.5234C56.455 21.4872 56.3609 21.4687 56.266 21.469H53.247C52.847 21.469 52.524 21.791 52.524 22.19V33.204C52.524 37.516 55.345 40 59.701 40ZM76.064 21.47H69.445C69.045 21.47 68.722 21.793 68.722 22.19V38.952C68.722 39.35 69.046 39.672 69.445 39.672H72.437C72.837 39.672 73.16 39.35 73.16 38.952V33.423H76.064C80.036 33.423 82.008 30.667 82.008 27.474C82.008 24.254 80.036 21.47 76.064 21.47ZM75.516 29.575H73.16V25.318H75.516C76.694 25.318 77.516 26.108 77.516 27.446C77.516 28.783 76.694 29.575 75.516 29.575ZM27.983 29.59H25.655V25.332H27.983C29.161 25.332 30.01 26.124 30.01 27.46C30.01 28.798 29.16 29.59 27.983 29.59ZM34.196 38.677L31.544 32.645C32.914 32.045 34.504 30.49 34.504 27.405C34.504 24.049 32.23 21.484 28.669 21.484H21.939C21.539 21.484 21.216 21.806 21.216 22.204V38.966C21.216 39.363 21.54 39.686 21.939 39.686H24.931C25.331 39.686 25.655 39.363 25.655 38.966V33.437H27.298L29.531 39.224C29.638 39.504 29.907 39.686 30.206 39.686H33.534C33.654 39.6865 33.7722 39.657 33.8779 39.6002C33.9836 39.5434 34.0734 39.4611 34.1392 39.3607C34.2049 39.2603 34.2446 39.1451 34.2545 39.0256C34.2645 38.906 34.2443 38.7868 34.196 38.677ZM103.183 17.782V15.375C103.183 15.2802 103.164 15.1864 103.127 15.0989C103.091 15.0114 103.037 14.9319 102.97 14.8651C102.903 14.7982 102.823 14.7452 102.735 14.7092C102.648 14.6732 102.554 14.6547 102.459 14.655H96.608V11.188H102.268C102.667 11.188 102.99 10.866 102.99 10.468V8.061C102.989 7.86986 102.913 7.68673 102.778 7.55176C102.642 7.41679 102.459 7.341 102.268 7.341H96.608V4.147H102.459C102.859 4.147 103.183 3.824 103.183 3.427V1.02C103.183 0.925017 103.164 0.830968 103.128 0.74324C103.091 0.655512 103.038 0.575831 102.971 0.508761C102.904 0.44169 102.824 0.38855 102.736 0.352384C102.648 0.316218 102.554 0.297737 102.459 0.298H92.893C92.493 0.298 92.169 0.621 92.169 1.02V17.78C92.169 18.178 92.494 18.5 92.893 18.5H102.459C102.859 18.5 103.183 18.178 103.183 17.78M111.662 8.405H109.334V4.148H111.662C112.839 4.148 113.688 4.94 113.688 6.276C113.688 7.614 112.839 8.405 111.662 8.405ZM117.875 17.492L115.223 11.462C116.593 10.861 118.183 9.306 118.183 6.222C118.183 2.865 115.908 0.3 112.347 0.3H105.618C105.218 0.3 104.895 0.622 104.895 1.02V17.782C104.895 18.179 105.218 18.502 105.618 18.502H108.61C109.009 18.502 109.334 18.179 109.334 17.782V12.253H110.977L113.21 18.04C113.317 18.319 113.585 18.502 113.884 18.502H117.212C117.332 18.5027 117.45 18.4733 117.556 18.4165C117.662 18.3598 117.752 18.2775 117.818 18.1771C117.884 18.0767 117.924 17.9615 117.934 17.8418C117.943 17.7222 117.923 17.6019 117.875 17.492Z" fill="#1D1D1D"/>
<path fill-rule="evenodd" clip-rule="evenodd" d="M127.774 3.06105H125.504V0.79705C125.504 0.731651 125.491 0.666919 125.466 0.606549C125.441 0.546179 125.404 0.491354 125.357 0.445203C125.311 0.399053 125.256 0.36248 125.196 0.337575C125.135 0.312669 125.07 0.299918 125.005 0.30005H123.46C123.184 0.30005 122.96 0.52205 122.96 0.79705V3.06105H120.691C120.626 3.06105 120.561 3.07396 120.5 3.09905C120.44 3.12414 120.385 3.16091 120.339 3.20726C120.292 3.25361 120.256 3.30863 120.231 3.36917C120.206 3.4297 120.193 3.49457 120.193 3.56005V5.10005C120.193 5.37605 120.416 5.60005 120.691 5.60005H122.961V7.86305C122.961 8.13805 123.184 8.36005 123.461 8.36005H125.005C125.282 8.36005 125.505 8.13805 125.505 7.86305V5.60005H127.775C127.907 5.60005 128.034 5.54758 128.127 5.45419C128.221 5.3608 128.273 5.23413 128.273 5.10205V3.56005C128.273 3.49448 128.26 3.42954 128.235 3.36893C128.21 3.30833 128.173 3.25327 128.127 3.20691C128.081 3.16055 128.026 3.1238 127.965 3.09877C127.905 3.07374 127.84 3.06092 127.774 3.06105Z" fill="#1D1D1D"/>
</g>
<defs>
<clipPath id="clip0_298_1519">
<rect width="129" height="40" fill="white"/>
</clipPath>
</defs>
</svg>
