<svg width="106" height="59" viewBox="0 0 106 59" fill="none" xmlns="http://www.w3.org/2000/svg">
<path d="M23.6626 11.9091V25H21.2912V11.9091H23.6626ZM36.9885 11.9091V25H34.8791L28.7108 16.0831H28.6021V25H26.2306V11.9091H28.3528L34.5147 20.8324H34.6298V11.9091H36.9885ZM41.3239 11.9091L44.7308 22.2131H44.8651L48.2656 11.9091H50.8736L46.2585 25H43.331L38.7223 11.9091H41.3239ZM54.9693 11.9091V25H52.5978V11.9091H54.9693ZM64.6516 15.5078C64.592 14.9496 64.3406 14.5149 63.8974 14.2038C63.4585 13.8928 62.8874 13.7372 62.1843 13.7372C61.69 13.7372 61.266 13.8118 60.9123 13.9609C60.5586 14.1101 60.288 14.3125 60.1005 14.5682C59.913 14.8239 59.8171 15.1158 59.8129 15.4439C59.8129 15.7166 59.8746 15.9531 59.9982 16.1534C60.1261 16.3537 60.2987 16.5241 60.516 16.6648C60.7333 16.8011 60.9741 16.9162 61.2383 17.0099C61.5025 17.1037 61.7688 17.1825 62.0373 17.2464L63.2646 17.5533C63.7589 17.6683 64.234 17.8239 64.69 18.0199C65.1502 18.2159 65.5614 18.4631 65.9237 18.7614C66.2901 19.0597 66.5799 19.4197 66.793 19.8416C67.006 20.2635 67.1126 20.7578 67.1126 21.3246C67.1126 22.0916 66.9165 22.767 66.5245 23.3509C66.1325 23.9304 65.5657 24.3842 64.8242 24.7124C64.087 25.0362 63.1942 25.1982 62.146 25.1982C61.1275 25.1982 60.2433 25.0405 59.4933 24.7251C58.7475 24.4098 58.1637 23.9496 57.7418 23.3445C57.3242 22.7393 57.0984 22.0021 57.0643 21.1328H59.3974C59.4315 21.5888 59.5721 21.968 59.8192 22.2706C60.0664 22.5732 60.3881 22.799 60.7844 22.9482C61.185 23.0973 61.6325 23.1719 62.1268 23.1719C62.6424 23.1719 63.0941 23.0952 63.4819 22.9418C63.8739 22.7841 64.1808 22.5668 64.4023 22.2898C64.6239 22.0085 64.7369 21.6804 64.7411 21.3054C64.7369 20.9645 64.6367 20.6832 64.4407 20.4616C64.2447 20.2358 63.9698 20.0483 63.6161 19.8991C63.2667 19.7457 62.8576 19.6094 62.3888 19.4901L60.8995 19.1065C59.8214 18.8295 58.9691 18.4098 58.3427 17.8473C57.7205 17.2805 57.4094 16.5284 57.4094 15.5909C57.4094 14.8196 57.6183 14.1442 58.0359 13.5646C58.4577 12.9851 59.0309 12.5355 59.7553 12.2159C60.4798 11.892 61.3001 11.7301 62.2163 11.7301C63.1452 11.7301 63.9592 11.892 64.658 12.2159C65.3612 12.5355 65.913 12.9808 66.3136 13.5518C66.7141 14.1186 66.9208 14.7706 66.9336 15.5078H64.6516ZM71.5982 11.9091V25H69.2267V11.9091H71.5982ZM74.1662 25V11.9091H79.1776C80.1236 11.9091 80.9098 12.0582 81.5362 12.3565C82.1669 12.6506 82.6378 13.0533 82.9489 13.5646C83.2642 14.076 83.4219 14.6555 83.4219 15.3033C83.4219 15.8359 83.3196 16.2919 83.1151 16.6712C82.9105 17.0462 82.6357 17.3509 82.2905 17.5852C81.9453 17.8196 81.5597 17.9879 81.1335 18.0902V18.218C81.598 18.2436 82.0433 18.3864 82.4695 18.6463C82.8999 18.902 83.2514 19.2642 83.5241 19.733C83.7969 20.2017 83.9332 20.7685 83.9332 21.4332C83.9332 22.1108 83.7692 22.7202 83.4411 23.2614C83.1129 23.7983 82.6186 24.2223 81.9581 24.5334C81.2976 24.8445 80.4666 25 79.4652 25H74.1662ZM76.5376 23.0185H79.0881C79.9489 23.0185 80.5689 22.8544 80.9482 22.5263C81.3317 22.1939 81.5234 21.7678 81.5234 21.2479C81.5234 20.8601 81.4276 20.5107 81.2358 20.1996C81.044 19.8842 80.7713 19.6371 80.4176 19.4581C80.0639 19.2749 79.642 19.1832 79.152 19.1832H76.5376V23.0185ZM76.5376 17.4766H78.8835C79.2926 17.4766 79.6612 17.402 79.9893 17.2528C80.3175 17.0994 80.5753 16.8842 80.7628 16.6072C80.9545 16.326 81.0504 15.9936 81.0504 15.6101C81.0504 15.103 80.8714 14.6854 80.5135 14.3572C80.1598 14.0291 79.6335 13.8651 78.9347 13.8651H76.5376V17.4766ZM85.9963 25V11.9091H88.3677V23.0121H94.1333V25H85.9963ZM96.1916 25V11.9091H104.706V13.897H98.563V17.451H104.265V19.4389H98.563V23.0121H104.757V25H96.1916ZM24.0462 47L20.3516 33.9091H22.902L25.2607 43.5291H25.3821L27.9006 33.9091H30.2209L32.7457 43.5355H32.8608L35.2195 33.9091H37.7699L34.0753 47H31.7358L29.1151 37.8146H29.0128L26.3857 47H24.0462ZM39.8649 47H37.3336L41.9423 33.9091H44.8699L49.4849 47H46.9537L43.4572 36.5938H43.3549L39.8649 47ZM39.948 41.8672H46.8514V43.772H39.948V41.8672ZM51.2092 47V33.9091H53.5806V45.0121H59.3462V47H51.2092ZM61.4045 47V33.9091H63.7759V45.0121H69.5415V47H61.4045ZM78.7141 37.5078C78.6545 36.9496 78.4031 36.5149 77.9599 36.2038C77.521 35.8928 76.9499 35.7372 76.2468 35.7372C75.7525 35.7372 75.3285 35.8118 74.9748 35.9609C74.6211 36.1101 74.3505 36.3125 74.163 36.5682C73.9755 36.8239 73.8796 37.1158 73.8754 37.4439C73.8754 37.7166 73.9371 37.9531 74.0607 38.1534C74.1886 38.3537 74.3612 38.5241 74.5785 38.6648C74.7958 38.8011 75.0366 38.9162 75.3008 39.0099C75.565 39.1037 75.8313 39.1825 76.0998 39.2464L77.3271 39.5533C77.8214 39.6683 78.2965 39.8239 78.7525 40.0199C79.2127 40.2159 79.6239 40.4631 79.9862 40.7614C80.3526 41.0597 80.6424 41.4197 80.8555 41.8416C81.0685 42.2635 81.1751 42.7578 81.1751 43.3246C81.1751 44.0916 80.979 44.767 80.587 45.3509C80.195 45.9304 79.6282 46.3842 78.8867 46.7124C78.1495 47.0362 77.2567 47.1982 76.2085 47.1982C75.19 47.1982 74.3058 47.0405 73.5558 46.7251C72.81 46.4098 72.2262 45.9496 71.8043 45.3445C71.3867 44.7393 71.1609 44.0021 71.1268 43.1328H73.4599C73.494 43.5888 73.6346 43.968 73.8817 44.2706C74.1289 44.5732 74.4506 44.799 74.8469 44.9482C75.2475 45.0973 75.695 45.1719 76.1893 45.1719C76.7049 45.1719 77.1566 45.0952 77.5444 44.9418C77.9364 44.7841 78.2433 44.5668 78.4648 44.2898C78.6864 44.0085 78.7994 43.6804 78.8036 43.3054C78.7994 42.9645 78.6992 42.6832 78.5032 42.4616C78.3072 42.2358 78.0323 42.0483 77.6786 41.8991C77.3292 41.7457 76.9201 41.6094 76.4513 41.4901L74.962 41.1065C73.8839 40.8295 73.0316 40.4098 72.4052 39.8473C71.783 39.2805 71.4719 38.5284 71.4719 37.5909C71.4719 36.8196 71.6808 36.1442 72.0984 35.5646C72.5202 34.9851 73.0934 34.5355 73.8178 34.2159C74.5423 33.892 75.3626 33.7301 76.2788 33.7301C77.2077 33.7301 78.0217 33.892 78.7205 34.2159C79.4237 34.5355 79.9755 34.9808 80.3761 35.5518C80.7766 36.1186 80.9833 36.7706 80.9961 37.5078H78.7141Z" fill="#1D1D1D"/>
<path d="M4 0L4 59" stroke="#FF412C" stroke-width="7"/>
</svg>
